<svg width="6827" height="6827" xmlns="http://www.w3.org/2000/svg">
 <defs>
  <style type="text/css">
   <![CDATA[
    .fil3 {fill:none}
    .fil1 {fill:#80CBC4}
    .fil2 {fill:#F6FFFD}
    .fil0 {fill:#013668;fill-rule:nonzero}
   ]]>
  </style>
 </defs>
 <g>
  <title>background</title>
  <rect fill="none" id="canvas_background" height="402" width="582" y="-1" x="-1"/>
 </g>
 <g>
  <title>Layer 1</title>
  <g id="Layer_x0020_1">
   <g id="_271566488">
    <path id="svg_1" d="m3413,853c707,0 1347,287 1810,750c463,463 750,1103 750,1810c0,707 -287,1347 -750,1810c-463,463 -1103,750 -1810,750c-707,0 -1347,-287 -1810,-750c-463,-463 -750,-1103 -750,-1810c0,-707 287,-1347 750,-1810c463,-463 1103,-750 1810,-750zm1697,863c-434,-434 -1034,-703 -1697,-703c-663,0 -1263,269 -1697,703c-434,434 -703,1034 -703,1697c0,663 269,1263 703,1697c434,434 1034,703 1697,703c663,0 1263,-269 1697,-703c434,-434 703,-1034 703,-1697c0,-663 -269,-1263 -703,-1697z" class="fil0"/>
    <path id="svg_2" d="m2093,4128c-21,-39 -7,-87 32,-108c39,-21 87,-7 108,32c102,187 267,345 475,456c203,108 445,171 705,171c261,0 503,-63 705,-171c207,-111 373,-269 475,-456c21,-39 69,-53 108,-32c39,21 53,69 32,108c-116,214 -305,395 -540,520c-225,121 -493,191 -780,191c-287,0 -555,-70 -780,-191c-235,-126 -423,-306 -540,-520z" class="fil0"/>
    <path id="svg_3" d="m2519,2188c115,0 218,46 293,121c75,75 121,179 121,293c0,115 -46,218 -121,293c-75,75 -179,121 -293,121c-115,0 -218,-46 -293,-121c-75,-75 -121,-179 -121,-293c0,-115 46,-218 121,-293c75,-75 179,-121 293,-121zm180,235c-46,-46 -110,-75 -180,-75c-70,0 -134,29 -180,75c-46,46 -75,110 -75,180c0,70 29,134 75,180c46,46 110,75 180,75c70,0 134,-29 180,-75c46,-46 75,-110 75,-180c0,-70 -29,-134 -75,-180z" class="fil0"/>
    <path id="svg_4" d="m4308,2188c115,0 218,46 293,121c75,75 121,179 121,293c0,115 -46,218 -121,293c-75,75 -179,121 -293,121c-115,0 -218,-46 -293,-121c-75,-75 -121,-179 -121,-293c0,-115 46,-218 121,-293c75,-75 179,-121 293,-121zm180,235c-46,-46 -110,-75 -180,-75c-70,0 -134,29 -180,75c-46,46 -75,110 -75,180c0,70 29,134 75,180c46,46 110,75 180,75c70,0 134,-29 180,-75c46,-46 75,-110 75,-180c0,-70 -29,-134 -75,-180z" class="fil0"/>
   </g>
   <path id="svg_6" d="m2774,2603c0,-70 -29,-134 -75,-180c-46,-46 -110,-75 -180,-75c-70,0 -134,29 -180,75c-46,46 -75,110 -75,180c0,70 29,134 75,180c46,46 110,75 180,75c70,0 134,-29 180,-75c46,-46 75,-110 75,-180z" class="fil2"/>
   <path id="svg_7" d="m4127,2422c-46,46 -75,110 -75,180c0,70 29,134 75,180c46,46 110,75 180,75c70,0 134,-29 180,-75c46,-46 75,-110 75,-180c0,-70 -29,-134 -75,-180c-46,-46 -110,-75 -180,-75c-70,0 -134,29 -180,75z" class="fil2"/>
  </g>
 </g>
</svg>